<?xml version="1.0" encoding="UTF-8"?>
<svg version="1.1" xmlns="http://www.w3.org/2000/svg" width="500" height="500">
<path d="M0 0 C0.97839844 0.3403125 1.95679688 0.680625 2.96484375 1.03125 C20.59699909 7.74826156 34.47714279 20.167357 43 37 C48.61446764 50.01926298 50.28997643 62.42726052 50.625 76.5 C50.66317792 77.87695735 50.70151145 79.2539104 50.73999023 80.63085938 C51.16013194 96.75046916 51.09458702 112.87655038 51 129 C51.81525146 129.04487549 52.63050293 129.08975098 53.47045898 129.13598633 C63.1078898 129.67188114 72.74286317 130.24370106 82.37683105 130.83856201 C84.13987944 130.9470655 85.90298295 131.05467675 87.6661377 131.16143799 C93.08388002 131.48975253 98.50017716 131.8345311 103.91555786 132.19979858 C105.653901 132.31485972 107.39257398 132.42506101 109.13156128 132.52993774 C130.17408249 133.80859019 149.73466357 137.46837191 166 152 C166.68578125 152.60457031 167.3715625 153.20914063 168.078125 153.83203125 C181.94288048 166.82362464 187.59764869 184.65097678 189.28515625 203.12109375 C189.9083575 223.09062935 182.67878492 242.02514663 169.8125 257.125 C157.38751448 270.32393243 139.65844066 280.27972277 121.22949219 281.12744141 C102.23615506 281.61807753 102.23615506 281.61807753 99 280 C98.98582031 280.8971875 98.97164063 281.794375 98.95703125 282.71875 C98.14579644 303.9424066 89.78970417 321.867316 74.375 336.625 C58.16019259 350.69775912 38.26294351 356.35583547 17 355 C-3.54424593 352.4848094 -20.92975799 342.84938227 -33.8671875 326.6640625 C-53.09803991 300.50019893 -48.26371851 269.6182045 -44.97265625 239.4140625 C-44.84911774 238.27597641 -44.84911774 238.27597641 -44.7230835 237.11489868 C-44.26942674 233.05123775 -43.71470517 229.02602677 -43 225 C-43.79631836 225.06566162 -44.59263672 225.13132324 -45.41308594 225.19897461 C-57.93287052 226.20118318 -70.44565683 226.68169451 -83 227 C-83.68300171 227.01780518 -84.36600342 227.03561035 -85.06970215 227.05395508 C-111.79836142 227.72906913 -136.23648724 227.3889248 -157 208 C-170.73855279 194.40917358 -178.05706892 176.35824245 -178.38085938 157.06103516 C-178.33871571 137.2921455 -173.3481012 118.52948092 -159.12890625 104.09375 C-158.42636719 103.4028125 -157.72382813 102.711875 -157 102 C-156.47277344 101.3915625 -155.94554687 100.783125 -155.40234375 100.15625 C-143.57086315 86.84205188 -124.19858186 80.49647181 -107 79 C-103.32493325 78.8720565 -99.67461553 78.86744874 -96 79 C-96.09539062 78.29617187 -96.19078125 77.59234375 -96.2890625 76.8671875 C-98.42034612 57.88389385 -92.80122875 39.96612143 -81.25 24.875 C-61.80430188 1.64308845 -29.51060464 -10.65302758 0 0 Z " fill="#1BAE25" transform="translate(259,65)"/>
<path d="M0 0 C2.03267506 0.01766876 4.0646933 0.11186379 6.09375 0.234375 C6.73566788 0.27188873 7.37758575 0.30940247 8.03895569 0.34805298 C10.19305213 0.47598177 12.34650229 0.61237697 14.5 0.75 C16.01424118 0.84456943 17.52848273 0.93913313 19.04272461 1.03369141 C22.29945738 1.23899849 25.55580472 1.44960992 28.81201172 1.66308594 C32.32620492 1.89309009 35.84079144 2.11447753 39.35595703 2.32910156 C43.87646554 2.60567308 48.39571668 2.89814296 52.91455078 3.20080566 C54.65333884 3.31519118 56.39243807 3.42495874 58.13183594 3.52966309 C79.17416179 4.80857433 98.73484507 8.46853407 115 23 C115.68578125 23.60457031 116.3715625 24.20914063 117.078125 24.83203125 C130.94288048 37.82362464 136.59764869 55.65097678 138.28515625 74.12109375 C138.9083575 94.09062935 131.67878492 113.02514663 118.8125 128.125 C106.38751448 141.32393243 88.65844066 151.27972277 70.22949219 152.12744141 C51.23615506 152.61807753 51.23615506 152.61807753 48 151 C47.98582031 151.8971875 47.97164062 152.794375 47.95703125 153.71875 C47.14579644 174.9424066 38.78970417 192.867316 23.375 207.625 C7.16019259 221.69775912 -12.73705649 227.35583547 -34 226 C-54.54424593 223.4848094 -71.92975799 213.84938227 -84.8671875 197.6640625 C-104.09803991 171.50019893 -99.26371851 140.6182045 -95.97265625 110.4140625 C-95.84911774 109.27597641 -95.84911774 109.27597641 -95.7230835 108.11489868 C-94.74405587 99.34519277 -94.74405587 99.34519277 -94 96 C-90.91233354 94.45616677 -87.6275521 94.74674996 -84.2331543 94.65869141 C-83.43134735 94.63410355 -82.62954041 94.60951569 -81.80343628 94.58418274 C-80.05904941 94.53100955 -78.31460101 94.47982683 -76.5701046 94.43037796 C-73.80855947 94.35111303 -71.04733747 94.26453921 -68.28608704 94.17562866 C-60.43397461 93.92335787 -52.58169963 93.67830064 -44.72875977 93.453125 C-39.92794305 93.31494047 -35.12772713 93.16300081 -30.32761574 93.00223923 C-28.49816473 92.9436516 -26.66853916 92.89027365 -24.83878136 92.84221268 C-22.27693273 92.77446871 -19.7162098 92.68924792 -17.1550293 92.60009766 C-16.40003647 92.58440231 -15.64504364 92.56870697 -14.86717224 92.55253601 C-10.44315037 92.37666493 -7.51382121 91.74086622 -4 89 C-1.48811792 85.23217688 -1.70030849 82.23812915 -1.69702148 77.87255859 C-1.68436249 76.63073067 -1.68436249 76.63073067 -1.67144775 75.36381531 C-1.64564113 72.6253503 -1.63352462 69.88699303 -1.62109375 67.1484375 C-1.60492494 65.24939107 -1.5877456 63.35035299 -1.56959534 61.45132446 C-1.52387521 56.45076345 -1.4890832 51.45019144 -1.45739746 46.44952393 C-1.40554546 38.43743508 -1.34055469 30.42546859 -1.26918221 22.41353226 C-1.24627128 19.60767966 -1.23005189 16.80184281 -1.21446228 13.99594116 C-1.20106167 12.28684311 -1.1874474 10.57774671 -1.17358398 8.86865234 C-1.17097061 8.08214798 -1.16835724 7.29564362 -1.16566467 6.48530579 C-1.1136368 1.1136368 -1.1136368 1.1136368 0 0 Z " fill="#69E773" transform="translate(310,194)"/>
<path d="M0 0 C3.17208335 0.21703984 6.34423317 0.43233512 9.51681519 0.64196777 C11.47179942 0.77115769 13.42652717 0.90432846 15.38088989 1.04260254 C22.88301668 1.53869067 30.35832917 1.5650712 37.875 1.5 C37.86012269 12.73999395 37.81851796 23.9795421 37.74290943 35.21930122 C37.70863728 40.43857684 37.68352907 45.65755966 37.67944336 50.87695312 C37.67516094 55.91522495 37.6467026 60.95283627 37.60156822 65.99090195 C37.58859146 67.9117536 37.58428617 69.83268429 37.58884621 71.75357437 C37.59375096 74.44727908 37.56766646 77.13905243 37.53442383 79.83251953 C37.54304947 80.62446213 37.55167511 81.41640472 37.56056213 82.23234558 C37.47762379 86.24854454 37.05268566 88.78044285 34.52128601 91.97921753 C30.35732372 95.94569851 26.41298124 95.71812677 20.94702148 95.90478516 C19.73686371 95.9513047 19.73686371 95.9513047 18.5022583 95.99876404 C15.83368437 96.1000666 13.16492519 96.19480575 10.49609375 96.2890625 C8.64428355 96.35705457 6.79248208 96.42528485 4.94068909 96.4937439 C1.05959953 96.6361551 -2.82159177 96.77524798 -6.70288086 96.91210938 C-11.68571992 97.08814077 -16.66818432 97.2730374 -21.6506052 97.46048927 C-25.47392015 97.60325072 -29.29740287 97.74100875 -33.12095451 97.87726974 C-34.95868784 97.94343247 -36.79636257 98.01124351 -38.63397408 98.08070755 C-41.19796967 98.17694282 -43.76211373 98.26637891 -46.32641602 98.35400391 C-47.47272743 98.39911858 -47.47272743 98.39911858 -48.64219666 98.44514465 C-53.89654137 98.61422931 -53.89654137 98.61422931 -56.125 97.5 C-56.06030518 96.90840088 -55.99561035 96.31680176 -55.92895508 95.70727539 C-54.53512381 82.91872393 -53.18271245 70.1265615 -51.8828125 57.328125 C-51.77440536 56.26125961 -51.66599823 55.19439423 -51.55430603 54.09519958 C-51.00972043 48.73108038 -50.46718864 43.36676117 -49.92700195 38.00219727 C-49.52472794 34.01046819 -49.11342308 30.01983348 -48.69482422 26.02978516 C-48.32256011 22.47943857 -47.98134159 18.92860034 -47.66845703 15.37255859 C-47.52020533 13.83557832 -47.37162723 12.29862948 -47.22265625 10.76171875 C-47.1701622 10.07584183 -47.11766815 9.3899649 -47.06358337 8.68330383 C-46.72927187 5.42613972 -46.26879277 3.67691875 -44.18139648 1.10864258 C-34.74871261 -6.27019561 -11.31804998 -0.77701864 0 0 Z " fill="#26D132" transform="translate(272.125,191.5)"/>
<path d="M0 0 C18.21116394 -1.26320212 36.00168184 4.60979756 50.08984375 16.22265625 C53.01719483 18.94646963 55.51063098 21.87233123 58 25 C54.86140655 23.60120336 52.67507511 21.91835015 50.1875 19.5625 C47.59776864 17.22448084 45.37882373 15.52028191 42.125 14.25 C39 13 39 13 37 10 C34.68060793 9.2863409 32.34476551 8.6252708 30 8 C29.030625 7.484375 28.06125 6.96875 27.0625 6.4375 C23.2641456 4.65459896 20.16584792 4.35912482 16 4 C16 3.34 16 2.68 16 2 C14.64455078 2.03480469 14.64455078 2.03480469 13.26171875 2.0703125 C12.08222656 2.08835938 10.90273438 2.10640625 9.6875 2.125 C7.92986328 2.15980469 7.92986328 2.15980469 6.13671875 2.1953125 C3 2 3 2 0 0 Z " fill="#78D67F" transform="translate(373,199)"/>
<path d="M0 0 C0.33 0 0.66 0 1 0 C1.02902429 3.27081471 1.04680684 6.5415963 1.0625 9.8125 C1.07087891 10.74126953 1.07925781 11.67003906 1.08789062 12.62695312 C1.09111328 13.51962891 1.09433594 14.41230469 1.09765625 15.33203125 C1.10289307 16.15421143 1.10812988 16.9763916 1.11352539 17.82348633 C1 20 1 20 0 23 C-0.09590461 25.38259618 -0.13074273 27.76781907 -0.1328125 30.15234375 C-0.13424759 31.1971566 -0.13424759 31.1971566 -0.13571167 32.26307678 C-0.1363915 33.73487437 -0.13455095 35.20667498 -0.13037109 36.6784668 C-0.12502809 38.92568745 -0.13031853 41.1727075 -0.13671875 43.41992188 C-0.13605778 44.85156294 -0.13477621 46.28320388 -0.1328125 47.71484375 C-0.13168457 49.01542725 -0.13055664 50.31601074 -0.12939453 51.65600586 C-0.02596027 54.3290985 0.19536371 56.47222751 1 59 C0.01 59.495 0.01 59.495 -1 60 C-5.99419946 40.55829497 -2.30188973 19.59871361 0 0 Z " fill="#79D880" transform="translate(214,306)"/>
<path d="M0 0 C0.66 1.32 1.32 2.64 2 4 C1.236875 4.9075 0.47375 5.815 -0.3125 6.75 C-4.73132003 11.80611922 -4.73132003 11.80611922 -7 18 C-5.68 17.34 -4.36 16.68 -3 16 C-3.75 18.9375 -3.75 18.9375 -5 22 C-6.875 22.5625 -6.875 22.5625 -9 23 C-11.24850483 25.47661498 -11.24850483 25.47661498 -13 28 C-12.4960189 22.23806679 -10.84608763 17.97987426 -8.1875 12.875 C-7.84396484 12.18535156 -7.50042969 11.49570313 -7.14648438 10.78515625 C-5.12389358 6.81586925 -2.93398152 3.38891349 0 0 Z " fill="#26A62E" transform="translate(178,90)"/>
<path d="M0 0 C0 0.33 0 0.66 0 1 C-0.81984375 1.13277344 -1.6396875 1.26554688 -2.484375 1.40234375 C-3.56203125 1.57894531 -4.6396875 1.75554687 -5.75 1.9375 C-7.35101563 2.19853516 -7.35101563 2.19853516 -8.984375 2.46484375 C-11.85764679 2.93401573 -11.85764679 2.93401573 -14.07421875 3.5390625 C-17.22476543 4.29314872 -20.4353915 4.39317805 -23.66015625 4.62109375 C-26.26449282 4.87692381 -26.26449282 4.87692381 -29 7 C-31.29422534 7.81790565 -33.61010233 8.51438231 -35.94140625 9.21875 C-38.18124242 9.90777029 -38.18124242 9.90777029 -40 12 C-41.98821313 12.39764263 -43.98944339 12.73775349 -46 13 C-46 13.66 -46 14.32 -46 15 C-47.65 15.33 -49.3 15.66 -51 16 C-38.99192447 2.67717168 -16.85993583 -0.31094144 0 0 Z " fill="#30A038" transform="translate(162,144)"/>
<path d="M0 0 C3.00412163 1.50206081 3.54641699 4.03469065 5 7 C8.34058165 10.25492571 9.22812981 11 14 11 C13.34 12.32 12.68 13.64 12 15 C7.17170572 13.51299286 4.2512231 10.78716744 0.6875 7.375 C0.13771484 6.859375 -0.41207031 6.34375 -0.97851562 5.8125 C-2.32498054 4.54799382 -3.66332535 3.27485078 -5 2 C-2 0 -2 0 0 0 Z " fill="#71DD7A" transform="translate(234,394)"/>
<path d="M0 0 C0.33 0 0.66 0 1 0 C0.76634384 13.59454026 -2.29602335 26.08181929 -9 38 C-9.66 36.68 -10.32 35.36 -11 34 C-9.515 33.505 -9.515 33.505 -8 33 C-8 31.35 -8 29.7 -8 28 C-7.34 28 -6.68 28 -6 28 C-5.86722656 27.28972656 -5.73445313 26.57945312 -5.59765625 25.84765625 C-5.42105469 24.92855469 -5.24445313 24.00945312 -5.0625 23.0625 C-4.88847656 22.14597656 -4.71445312 21.22945313 -4.53515625 20.28515625 C-4 18 -4 18 -3 17 C-2.92755947 14.98035801 -2.91622812 12.95832876 -2.9375 10.9375 C-2.94652344 9.83277344 -2.95554687 8.72804688 -2.96484375 7.58984375 C-2.97644531 6.73519531 -2.98804688 5.88054687 -3 5 C-2.34 5 -1.68 5 -1 5 C-0.67 3.35 -0.34 1.7 0 0 Z " fill="#77D881" transform="translate(357,346)"/>
<path d="M0 0 C0.81984375 0.2165625 1.6396875 0.433125 2.484375 0.65625 C3.56203125 0.9346875 4.6396875 1.213125 5.75 1.5 C6.81734375 1.7784375 7.8846875 2.056875 8.984375 2.34375 C12.13705302 3.14175989 12.13705302 3.14175989 16 3 C16.33 3.99 16.66 4.98 17 6 C16.67 6.66 16.34 7.32 16 8 C17.65 8 19.3 8 21 8 C21.33 8.66 21.66 9.32 22 10 C16.53075658 9.48681906 12.47174904 8.09955094 7.625 5.5625 C6.68333984 5.09360352 6.68333984 5.09360352 5.72265625 4.61523438 C1.13625136 2.27250272 1.13625136 2.27250272 0 0 Z " fill="#27A330" transform="translate(111,279)"/>
<path d="M0 0 C2.97 1.65 5.94 3.3 9 5 C9 5.99 9 6.98 9 8 C10.75589949 11.10818505 10.75589949 11.10818505 13.5625 12.5 C16 14 16 14 17 17 C10.05458984 13.84440162 4.50614018 8.05512586 0 2 C0 1.34 0 0.68 0 0 Z " fill="#289B31" transform="translate(94,262)"/>
<path d="M0 0 C0.66 0.33 1.32 0.66 2 1 C1.01 1.66 0.02 2.32 -1 3 C-1 3.99 -1 4.98 -1 6 C-1.8353125 6.29390625 -1.8353125 6.29390625 -2.6875 6.59375 C-9.22293138 9.15493257 -13.36036164 12.79146865 -18 18 C-18 15 -18 15 -16.6015625 13.203125 C-11.46795944 8.1303947 -6.03253349 3.95575967 0 0 Z " fill="#2E9F38" transform="translate(198,72)"/>
<path d="M0 0 C0.33 0.66 0.66 1.32 1 2 C-2.11210031 8.00190775 -5.91484058 13.53122354 -11 18 C-11 16.02 -11 14.04 -11 12 C-10.01 12 -9.02 12 -8 12 C-8 11.34 -8 10.68 -8 10 C-7.34 10 -6.68 10 -6 10 C-5.814375 9.0409375 -5.814375 9.0409375 -5.625 8.0625 C-5.41875 7.381875 -5.2125 6.70125 -5 6 C-4.34 5.67 -3.68 5.34 -3 5 C-1.9590934 3.35857037 -0.95495674 1.69287785 0 0 Z " fill="#75D87D" transform="translate(439,304)"/>
<path d="M0 0 C0.33 0 0.66 0 1 0 C1 2.31 1 4.62 1 7 C1.66 7.33 2.32 7.66 3 8 C2.01 9.485 2.01 9.485 1 11 C0.85778935 13.60245498 0.81197068 16.09117684 0.875 18.6875 C0.88402344 19.38939453 0.89304688 20.09128906 0.90234375 20.81445312 C0.92586296 22.54311525 0.96173287 24.27160145 1 26 C0.34 26 -0.32 26 -1 26 C-2.22026945 16.99639025 -1.59770776 8.92603674 0 0 Z " fill="#2AA432" transform="translate(164,118)"/>
<path d="M0 0 C2.66726716 2.66726716 3.40327218 5.33509408 4.6875 8.875 C5.14511719 10.10992187 5.60273438 11.34484375 6.07421875 12.6171875 C6.93330009 15.75627797 7.21775181 17.06263502 6 20 C5.84144531 19.44570312 5.68289063 18.89140625 5.51953125 18.3203125 C4.09623213 13.52015703 4.09623213 13.52015703 0.3125 10.5 C-0.450625 10.335 -1.21375 10.17 -2 10 C-2 9.34 -2 8.68 -2 8 C-1.01 7.67 -0.02 7.34 1 7 C0.67 4.69 0.34 2.38 0 0 Z " fill="#28A531" transform="translate(300,100)"/>
<path d="M0 0 C6.27762202 3.63441275 10.99111424 8.81293254 16 14 C15.67 14.66 15.34 15.32 15 16 C13.2925002 14.71937515 11.62626404 13.38232443 10 12 C10 11.34 10 10.68 10 10 C7.525 9.01 7.525 9.01 5 8 C5 7.34 5 6.68 5 6 C4.360625 5.7525 3.72125 5.505 3.0625 5.25 C1 4 1 4 0.25 1.875 C0.1675 1.25625 0.085 0.6375 0 0 Z " fill="#2D9937" transform="translate(278,75)"/>
<path d="M0 0 C1.67542976 0.28604898 3.34385343 0.61781233 5 1 C2.33975514 3.66024486 -0.0797115 4.08982158 -3.6875 5.125 C-4.88761719 5.47820312 -6.08773438 5.83140625 -7.32421875 6.1953125 C-11.00546379 7.00119611 -14.2451627 7.14460221 -18 7 C-13.82209836 4.21473224 -9.75510283 4.17060874 -4.8359375 3.5625 C-3.90007812 3.376875 -2.96421875 3.19125 -2 3 C-1.67 2.34 -1.34 1.68 -1 1 C-0.67 0.67 -0.34 0.34 0 0 Z " fill="#7AD583" transform="translate(309,412)"/>
<path d="M0 0 C9.05638678 -0.15178302 17.97582223 0.30962574 27 1 C27 1.33 27 1.66 27 2 C23.25129501 2.25518724 19.50132602 2.47461113 15.75 2.6875 C14.68652344 2.76033203 13.62304688 2.83316406 12.52734375 2.90820312 C10.99013672 2.99038086 10.99013672 2.99038086 9.421875 3.07421875 C8.47924805 3.13182373 7.53662109 3.18942871 6.56542969 3.2487793 C3.52758269 2.95418793 2.23819488 2.01483592 0 0 Z " fill="#78D881" transform="translate(346,197)"/>
<path d="M0 0 C0.928125 0.33 1.85625 0.66 2.8125 1 C5.92029291 2.14967004 5.92029291 2.14967004 9 2 C9 2.99 9 3.98 9 5 C9.928125 4.938125 10.85625 4.87625 11.8125 4.8125 C15 5 15 5 16.69921875 6.51171875 C17.12847656 7.00285156 17.55773437 7.49398438 18 8 C11.13523882 6.91081033 5.22529789 5.09761199 -1 2 C-0.67 1.34 -0.34 0.68 0 0 Z " fill="#77D77F" transform="translate(250,410)"/>
<path d="M0 0 C0.928125 0.20625 1.85625 0.4125 2.8125 0.625 C0.52886622 2.90863378 -0.93545468 3.3402849 -4 4.25 C-4.85207031 4.51039063 -5.70414062 4.77078125 -6.58203125 5.0390625 C-9.20729166 5.6294509 -11.50670637 5.73088413 -14.1875 5.625 C-14.1875 4.965 -14.1875 4.305 -14.1875 3.625 C-12.3003125 3.191875 -12.3003125 3.191875 -10.375 2.75 C-6.40572769 1.83901947 -4.08107296 -0.48012623 0 0 Z " fill="#75D983" transform="translate(398.1875,339.375)"/>
<path d="M0 0 C-0.33 0.66 -0.66 1.32 -1 2 C-4.42232972 3.14077657 -7.08673217 3.09815117 -10.6875 3.0625 C-12.45673828 3.04896484 -12.45673828 3.04896484 -14.26171875 3.03515625 C-15.16535156 3.02355469 -16.06898438 3.01195312 -17 3 C-14.20261218 1.4932252 -11.59677568 0.51775885 -8.5 -0.1875 C-7.7471875 -0.36667969 -6.994375 -0.54585938 -6.21875 -0.73046875 C-3.85166621 -1.01801942 -2.25455985 -0.72248395 0 0 Z " fill="#32D140" transform="translate(305,284)"/>
<path d="M0 0 C3.07653838 1.02551279 3.80796996 1.80796996 6 4 C6.99 4.33 7.98 4.66 9 5 C9 7.31 9 9.62 9 12 C4.99027798 8.32442148 2.54664585 4.81033104 0 0 Z " fill="#70D67C" transform="translate(220,383)"/>
<path d="M0 0 C0.99 0 1.98 0 3 0 C1.68775452 3.93673644 0.08089673 6.22719294 -3 9 C-3.66 6.69 -4.32 4.38 -5 2 C-4.01 2.33 -3.02 2.66 -2 3 C-1.34 2.01 -0.68 1.02 0 0 Z " fill="#72DE7A" transform="translate(343,385)"/>
<path d="M0 0 C0.99 0.66 1.98 1.32 3 2 C0.03 4.31 -2.94 6.62 -6 9 C-6.66 8.67 -7.32 8.34 -8 8 C-8 7.34 -8 6.68 -8 6 C-6.20963542 5.0234375 -4.41927083 4.046875 -2.62890625 3.0703125 C-0.83381685 2.08589976 -0.83381685 2.08589976 0 0 Z " fill="#76D77F" transform="translate(418,327)"/>
<path d="M0 0 C1.32 0.33 2.64 0.66 4 1 C3.67 3.97 3.34 6.94 3 10 C0.47411298 7.63707344 -0.88820837 6.33537489 -2 3 C-1.34 3 -0.68 3 0 3 C0 2.01 0 1.02 0 0 Z " fill="#25A52E" transform="translate(91,252)"/>
<path d="M0 0 C0.75 1.625 0.75 1.625 1 4 C-1.02291546 7.61234904 -2.53871879 9.6924792 -6 12 C-4.68139111 7.38486888 -2.78644563 3.90102388 0 0 Z " fill="#2CA136" transform="translate(94,176)"/>
<path d="M0 0 C3.6739599 3.37607126 6.05406554 6.39120786 8 11 C8 11.66 8 12.32 8 13 C6.125 12.375 6.125 12.375 4 11 C2.875 8.1875 2.875 8.1875 2 5 C1.34588315 3.32836805 0.68346682 1.65984798 0 0 Z " fill="#76D180" transform="translate(433,227)"/>
<path d="M0 0 C0.33 0 0.66 0 1 0 C1.33292585 4.24480464 1.43885872 6.35542625 -1 9.9375 C-1.66 10.618125 -2.32 11.29875 -3 12 C-2.49202991 7.6822542 -1.80317221 3.96697886 0 0 Z " fill="#319F39" transform="translate(168,106)"/>
<path d="M0 0 C1.67542976 0.28604898 3.34385343 0.61781233 5 1 C1.99382731 4.00617269 -0.82381598 3.59585316 -5 4 C-4.01 3.67 -3.02 3.34 -2 3 C-1.67 2.34 -1.34 1.68 -1 1 C-0.67 0.67 -0.34 0.34 0 0 Z " fill="#74DE7E" transform="translate(309,412)"/>
<path d="M0 0 C0.99 0.495 0.99 0.495 2 1 C2 1.66 2 2.32 2 3 C2.66 3 3.32 3 4 3 C5.0625 4.875 5.0625 4.875 6 7 C5.67 7.66 5.34 8.32 5 9 C4.34 9 3.68 9 3 9 C2.01 6.03 1.02 3.06 0 0 Z " fill="#28A233" transform="translate(85,245)"/>
</svg>
